<svg width="20" height="20" viewBox="0 0 20 20" fill="none" xmlns="http://www.w3.org/2000/svg">
<path d="M15.8333 3H4.16667C3.85725 3 3.5605 3.12292 3.34171 3.34171C3.12292 3.5605 3 3.85725 3 4.16667V15.8333C3 16.1428 3.12292 16.4395 3.34171 16.6583C3.5605 16.8771 3.85725 17 4.16667 17H15.8333C16.1428 17 16.4395 16.8771 16.6583 16.6583C16.8771 16.4395 17 16.1428 17 15.8333V4.16667C17 3.85725 16.8771 3.5605 16.6583 3.34171C16.4395 3.12292 16.1428 3 15.8333 3ZM13.3294 8.66271L9.24604 12.746C9.19187 12.8003 9.12753 12.8433 9.05672 12.8727C8.9859 12.902 8.90999 12.9171 8.83333 12.9171C8.75667 12.9171 8.68077 12.902 8.60995 12.8727C8.53914 12.8433 8.4748 12.8003 8.42063 12.746L6.67062 10.996C6.56117 10.8866 6.49968 10.7381 6.49968 10.5833C6.49968 10.4285 6.56117 10.2801 6.67062 10.1706C6.78008 10.0612 6.92854 9.99968 7.08333 9.99968C7.23813 9.99968 7.38659 10.0612 7.49604 10.1706L8.83333 11.5086L12.504 7.83729C12.5582 7.78309 12.6225 7.7401 12.6933 7.71077C12.7641 7.68144 12.84 7.66634 12.9167 7.66634C12.9933 7.66634 13.0692 7.68144 13.14 7.71077C13.2108 7.7401 13.2752 7.78309 13.3294 7.83729C13.3836 7.89149 13.4266 7.95583 13.4559 8.02664C13.4852 8.09746 13.5003 8.17335 13.5003 8.25C13.5003 8.32665 13.4852 8.40254 13.4559 8.47336C13.4266 8.54417 13.3836 8.60851 13.3294 8.66271Z" fill="#4CBB3E"/>
</svg>
