<svg width="24" height="24" viewBox="0 0 24 24" fill="none" xmlns="http://www.w3.org/2000/svg">
<path d="M15.125 10.75C15.125 11.6153 14.8684 12.4611 14.3877 13.1806C13.907 13.9001 13.2237 14.4608 12.4243 14.792C11.6248 15.1231 10.7452 15.2097 9.8965 15.0409C9.04784 14.8721 8.26829 14.4554 7.65643 13.8436C7.04458 13.2317 6.6279 12.4522 6.45909 11.6035C6.29028 10.7548 6.37692 9.87518 6.70805 9.07575C7.03918 8.27633 7.59994 7.59304 8.3194 7.11231C9.03887 6.63158 9.88473 6.37499 10.75 6.37499C11.9103 6.37499 13.0231 6.83593 13.8436 7.6564C14.6641 8.47687 15.125 9.58967 15.125 10.75ZM19.9422 19.9422C19.8842 20.0003 19.8152 20.0464 19.7394 20.0778C19.6635 20.1093 19.5822 20.1255 19.5 20.1255C19.4179 20.1255 19.3366 20.1093 19.2607 20.0778C19.1848 20.0464 19.1159 20.0003 19.0578 19.9422L15.1469 16.0305C13.7868 17.162 12.0429 17.7256 10.2779 17.6041C8.51286 17.4826 6.86262 16.6853 5.67041 15.3782C4.4782 14.071 3.83581 12.3545 3.87685 10.5858C3.9179 8.81707 4.63923 7.13226 5.89079 5.8818C7.14236 4.63134 8.82781 3.9115 10.5966 3.87201C12.3653 3.83253 14.0812 4.47644 15.3873 5.6698C16.6935 6.86317 17.4893 8.51412 17.6092 10.2792C17.7291 12.0444 17.164 13.7878 16.0313 15.1469L19.9422 19.0578C20.0003 19.1159 20.0464 19.1848 20.0779 19.2607C20.1093 19.3365 20.1255 19.4179 20.1255 19.5C20.1255 19.5821 20.1093 19.6635 20.0779 19.7393C20.0464 19.8152 20.0003 19.8841 19.9422 19.9422ZM10.75 16.375C11.8625 16.375 12.9501 16.0451 13.8751 15.427C14.8001 14.8089 15.5211 13.9304 15.9468 12.9026C16.3726 11.8748 16.484 10.7438 16.2669 9.65261C16.0499 8.56147 15.5142 7.55919 14.7275 6.77252C13.9408 5.98585 12.9385 5.45012 11.8474 5.23308C10.7563 5.01603 9.62526 5.12743 8.59743 5.55317C7.5696 5.97891 6.69109 6.69988 6.07301 7.62491C5.45492 8.54994 5.12502 9.63747 5.12502 10.75C5.12668 12.2413 5.71984 13.6711 6.77438 14.7256C7.82891 15.7802 9.25869 16.3733 10.75 16.375Z" fill="#E4875D"/>
</svg>
